<svg width="398" height="46" viewBox="0 0 398 46" fill="none" xmlns="http://www.w3.org/2000/svg">
<path d="M14.5506 0.400024L18.5506 4.20001C20.0506 5.60001 20.8506 7.50002 20.8506 9.60002C20.8506 11.6 21.6506 13.5 23.0506 14.9L23.5506 15.4L28.1506 0.500015" fill="url(#paint0_linear_1006_2206)"/>
<path d="M0.950623 13.7L6.45062 13.5C8.45062 13.4 10.4506 14.2 11.8506 15.6C13.2506 17 15.1506 17.7 17.1506 17.7H17.8506L10.4506 4" fill="url(#paint1_linear_1006_2206)"/>
<path d="M0.950638 32.7L4.65063 28.7C6.05063 27.2 7.95064 26.3 9.95064 26.3C11.9506 26.3 13.7506 25.4 15.1506 24L15.6506 23.5L0.650635 19.2" fill="url(#paint2_linear_1006_2206)"/>
<path d="M14.5506 45.9L14.2506 40.4C14.1506 38.4 14.8506 36.4 16.2506 34.9C17.5506 33.5 18.3506 31.5 18.2506 29.6V28.9L4.65063 36.6" fill="url(#paint3_linear_1006_2206)"/>
<path d="M33.5506 45.5L29.4506 41.9C27.9506 40.6 27.0506 38.7 26.9506 36.6C26.8506 34.6 25.9506 32.8 24.5506 31.4L24.0506 30.9L20.0506 46" fill="url(#paint4_linear_1006_2206)"/>
<path d="M46.5506 31.6L41.0506 32C39.0506 32.2 37.0506 31.5 35.5506 30.1C34.0506 28.8 32.1506 28.1 30.1506 28.2H29.4506L37.4506 41.6" fill="url(#paint5_linear_1006_2206)"/>
<path d="M45.6506 12.7L42.1506 16.9C40.8506 18.4 38.9506 19.4 36.9506 19.5C34.9506 19.6 33.1506 20.5 31.8506 22L31.4506 22.5L46.6506 26.1" fill="url(#paint6_linear_1006_2206)"/>
<path d="M31.5506 0L32.0506 5.5C32.2506 7.5 31.6507 9.50001 30.2507 11.1C28.9507 12.6 28.3507 14.5 28.4507 16.5L28.5506 17.2L41.7507 8.90001" fill="url(#paint7_linear_1006_2206)"/>
<path d="M81.1552 10.7504H85.6712C85.5349 5.67949 81.14 2 74.8357 2C68.6072 2 63.8335 5.63311 63.8335 11.0905C63.8335 15.4966 66.925 18.0784 71.9109 19.4544L75.5783 20.4747C78.8972 21.3714 81.4583 22.4845 81.4583 25.2983C81.4583 28.3903 78.5638 30.431 74.5781 30.431C70.9713 30.431 67.9707 28.7922 67.6979 25.3446H63C63.3031 31.0803 67.6525 34.6207 74.6084 34.6207C81.8978 34.6207 86.0956 30.7093 86.0956 25.3446C86.0956 19.6399 81.1097 17.4291 77.1695 16.4397L74.1386 15.6357C71.7139 15.0019 68.486 13.8424 68.5011 10.8122C68.5011 8.12217 70.9107 6.12783 74.7296 6.12783C78.291 6.12783 80.8218 7.82843 81.1552 10.7504Z" fill="white"/>
<path d="M104.366 24.247C104.381 28.282 101.441 30.1991 98.8953 30.1991C96.0917 30.1991 94.1519 28.1274 94.1519 24.8963V10.3484H89.6207V25.4529C89.6207 31.3431 92.788 34.4042 97.2586 34.4042C100.759 34.4042 103.139 32.5181 104.215 29.9827H104.457V34.095H108.912V10.3484H104.366V24.247Z" fill="white"/>
<path d="M117.825 19.9955C117.825 16.2078 120.098 14.0434 123.25 14.0434C126.327 14.0434 128.191 16.0995 128.191 19.5471V34.095H132.722V18.9906C132.722 13.1158 129.555 10.0392 124.796 10.0392C121.295 10.0392 119.007 11.6934 117.931 14.2134H117.643V10.3484H113.294V34.095H117.825V19.9955Z" fill="white"/>
<path d="M141.623 19.9955C141.623 16.2078 143.896 14.0434 147.049 14.0434C150.125 14.0434 151.989 16.0995 151.989 19.5471V34.095H156.52V18.9906C156.52 13.1158 153.353 10.0392 148.594 10.0392C145.094 10.0392 142.805 11.6934 141.729 14.2134H141.441V10.3484H137.092V34.095H141.623V19.9955Z" fill="white"/>
<path d="M162.921 43C166.664 43 169.028 41.0057 170.377 37.2643L180 10.3948L175.105 10.3484L169.21 28.7768H168.967L163.072 10.3484H158.223L166.74 34.4042L166.179 35.9811C165.027 39.135 163.406 39.3978 160.92 38.7021L159.829 42.4898C160.375 42.7372 161.557 43 162.921 43Z" fill="white"/>
<path d="M205.145 33H198.86V12.6364H205.423C207.398 12.6364 209.089 13.044 210.494 13.8594C211.899 14.6681 212.976 15.8314 213.725 17.3494C214.475 18.8608 214.849 20.6705 214.849 22.7784C214.849 24.8996 214.471 26.7259 213.716 28.2571C212.96 29.7817 211.859 30.955 210.414 31.777C208.969 32.5923 207.213 33 205.145 33ZM201.326 30.8125H204.985C206.669 30.8125 208.065 30.4877 209.172 29.8381C210.279 29.1884 211.104 28.2637 211.647 27.0639C212.191 25.8641 212.463 24.4356 212.463 22.7784C212.463 21.1345 212.194 19.7192 211.657 18.5327C211.12 17.3395 210.318 16.4247 209.251 15.7884C208.184 15.1454 206.855 14.8239 205.264 14.8239H201.326V30.8125ZM224.872 33.3182C223.493 33.3182 222.283 32.9901 221.243 32.3338C220.208 31.6776 219.4 30.7595 218.816 29.5795C218.24 28.3996 217.951 27.0208 217.951 25.4432C217.951 23.8523 218.24 22.4635 218.816 21.277C219.4 20.0904 220.208 19.169 221.243 18.5128C222.283 17.8565 223.493 17.5284 224.872 17.5284C226.251 17.5284 227.457 17.8565 228.491 18.5128C229.532 19.169 230.341 20.0904 230.917 21.277C231.501 22.4635 231.792 23.8523 231.792 25.4432C231.792 27.0208 231.501 28.3996 230.917 29.5795C230.341 30.7595 229.532 31.6776 228.491 32.3338C227.457 32.9901 226.251 33.3182 224.872 33.3182ZM224.872 31.2102C225.919 31.2102 226.781 30.9418 227.457 30.4048C228.133 29.8679 228.634 29.1619 228.958 28.2869C229.283 27.4119 229.446 26.464 229.446 25.4432C229.446 24.4223 229.283 23.4711 228.958 22.5895C228.634 21.7079 228.133 20.9953 227.457 20.4517C226.781 19.9081 225.919 19.6364 224.872 19.6364C223.824 19.6364 222.963 19.9081 222.287 20.4517C221.61 20.9953 221.11 21.7079 220.785 22.5895C220.46 23.4711 220.298 24.4223 220.298 25.4432C220.298 26.464 220.46 27.4119 220.785 28.2869C221.11 29.1619 221.61 29.8679 222.287 30.4048C222.963 30.9418 223.824 31.2102 224.872 31.2102ZM241.579 33.3182C240.147 33.3182 238.914 32.9801 237.88 32.304C236.846 31.6278 236.05 30.6965 235.494 29.5099C234.937 28.3234 234.658 26.9678 234.658 25.4432C234.658 23.892 234.943 22.5232 235.513 21.3366C236.09 20.1435 236.892 19.2121 237.92 18.5426C238.954 17.8665 240.16 17.5284 241.539 17.5284C242.613 17.5284 243.581 17.7273 244.442 18.125C245.304 18.5227 246.01 19.0795 246.56 19.7955C247.111 20.5114 247.452 21.3466 247.585 22.3011H245.238C245.059 21.6051 244.661 20.9886 244.045 20.4517C243.435 19.9081 242.613 19.6364 241.579 19.6364C240.664 19.6364 239.862 19.875 239.173 20.3523C238.49 20.8229 237.956 21.4891 237.572 22.3509C237.194 23.206 237.005 24.2102 237.005 25.3636C237.005 26.5436 237.191 27.571 237.562 28.446C237.94 29.321 238.47 30.0005 239.153 30.4844C239.842 30.9683 240.651 31.2102 241.579 31.2102C242.189 31.2102 242.742 31.1042 243.239 30.892C243.737 30.6799 244.157 30.375 244.502 29.9773C244.847 29.5795 245.092 29.1023 245.238 28.5455H247.585C247.452 29.447 247.124 30.259 246.6 30.9815C246.083 31.6974 245.397 32.2675 244.542 32.6918C243.693 33.1094 242.706 33.3182 241.579 33.3182ZM260.64 26.7557V17.7273H262.987V33H260.64V30.4148H260.481C260.123 31.1903 259.566 31.8499 258.81 32.3935C258.055 32.9304 257.1 33.1989 255.947 33.1989C254.992 33.1989 254.144 32.9901 253.401 32.5724C252.659 32.1482 252.076 31.5118 251.651 30.6634C251.227 29.8082 251.015 28.7311 251.015 27.4318V17.7273H253.362V27.2727C253.362 28.3864 253.673 29.2746 254.296 29.9375C254.926 30.6004 255.728 30.9318 256.702 30.9318C257.286 30.9318 257.879 30.7827 258.482 30.4844C259.092 30.1861 259.603 29.7287 260.013 29.1122C260.431 28.4957 260.64 27.7102 260.64 26.7557ZM267.284 33V17.7273H269.551V20.1136H269.75C270.069 19.2983 270.582 18.6652 271.292 18.2145C272.001 17.7571 272.853 17.5284 273.847 17.5284C274.855 17.5284 275.693 17.7571 276.363 18.2145C277.039 18.6652 277.566 19.2983 277.944 20.1136H278.103C278.494 19.3248 279.08 18.6984 279.863 18.2344C280.645 17.7637 281.583 17.5284 282.676 17.5284C284.042 17.5284 285.159 17.956 286.027 18.8111C286.896 19.6596 287.33 20.982 287.33 22.7784V33H284.983V22.7784C284.983 21.6515 284.675 20.8461 284.059 20.3622C283.442 19.8783 282.716 19.6364 281.881 19.6364C280.807 19.6364 279.975 19.9612 279.385 20.6108C278.795 21.2538 278.5 22.0691 278.5 23.0568V33H276.114V22.5398C276.114 21.6714 275.832 20.9721 275.269 20.4418C274.705 19.9048 273.98 19.6364 273.091 19.6364C272.481 19.6364 271.911 19.7988 271.381 20.1236C270.857 20.4484 270.433 20.8991 270.108 21.4759C269.79 22.0459 269.631 22.7055 269.631 23.4545V33H267.284ZM298.024 33.3182C296.552 33.3182 295.283 32.9934 294.216 32.3438C293.155 31.6875 292.336 30.7727 291.76 29.5994C291.19 28.4195 290.904 27.0473 290.904 25.483C290.904 23.9186 291.19 22.5398 291.76 21.3466C292.336 20.1468 293.138 19.2121 294.166 18.5426C295.2 17.8665 296.406 17.5284 297.785 17.5284C298.581 17.5284 299.366 17.661 300.142 17.9261C300.917 18.1913 301.623 18.6222 302.26 19.2188C302.896 19.8087 303.403 20.5909 303.781 21.5653C304.159 22.5398 304.348 23.7396 304.348 25.1648V26.1591H292.575V24.1307H301.961C301.961 23.2689 301.789 22.5 301.444 21.8239C301.106 21.1477 300.622 20.6141 299.993 20.223C299.369 19.8319 298.634 19.6364 297.785 19.6364C296.85 19.6364 296.042 19.8684 295.359 20.3324C294.683 20.7898 294.163 21.3864 293.798 22.1222C293.433 22.858 293.251 23.6468 293.251 24.4886V25.8409C293.251 26.9943 293.45 27.9721 293.848 28.7741C294.252 29.5696 294.812 30.1761 295.528 30.5938C296.244 31.0047 297.076 31.2102 298.024 31.2102C298.64 31.2102 299.197 31.1241 299.694 30.9517C300.198 30.7727 300.632 30.5076 300.997 30.1562C301.361 29.7983 301.643 29.3542 301.842 28.8239L304.109 29.4602C303.87 30.2292 303.469 30.9053 302.906 31.4886C302.342 32.0653 301.646 32.5161 300.818 32.8409C299.989 33.1591 299.058 33.3182 298.024 33.3182ZM310.264 23.8125V33H307.917V17.7273H310.184V20.1136H310.383C310.741 19.3381 311.285 18.715 312.014 18.2443C312.743 17.767 313.684 17.5284 314.838 17.5284C315.872 17.5284 316.777 17.7405 317.552 18.1648C318.328 18.5824 318.931 19.2188 319.362 20.0739C319.793 20.9223 320.008 21.9962 320.008 23.2955V33H317.662V23.4545C317.662 22.2547 317.35 21.3201 316.727 20.6506C316.104 19.9744 315.249 19.6364 314.162 19.6364C313.413 19.6364 312.743 19.7988 312.153 20.1236C311.57 20.4484 311.109 20.9223 310.771 21.5455C310.433 22.1686 310.264 22.9242 310.264 23.8125ZM330.938 17.7273V19.7159H323.023V17.7273H330.938ZM325.33 14.0682H327.677V28.625C327.677 29.2879 327.773 29.785 327.965 30.1165C328.164 30.4413 328.416 30.66 328.721 30.7727C329.032 30.8788 329.361 30.9318 329.705 30.9318C329.964 30.9318 330.176 30.9186 330.342 30.892C330.507 30.8589 330.64 30.8324 330.739 30.8125L331.217 32.9205C331.058 32.9801 330.835 33.0398 330.55 33.0994C330.265 33.1657 329.904 33.1989 329.467 33.1989C328.804 33.1989 328.154 33.0563 327.518 32.7713C326.888 32.4863 326.364 32.0521 325.947 31.4688C325.536 30.8854 325.33 30.1496 325.33 29.2614V14.0682ZM338.962 33.358C337.995 33.358 337.116 33.1757 336.327 32.8111C335.539 32.4399 334.912 31.9062 334.448 31.2102C333.984 30.5076 333.752 29.6591 333.752 28.6648C333.752 27.7898 333.924 27.0805 334.269 26.5369C334.614 25.9867 335.075 25.5559 335.651 25.2443C336.228 24.9328 336.864 24.7008 337.56 24.5483C338.263 24.3892 338.969 24.2633 339.678 24.1705C340.606 24.0511 341.359 23.9616 341.935 23.902C342.519 23.8357 342.943 23.7263 343.208 23.5739C343.48 23.4214 343.616 23.1562 343.616 22.7784V22.6989C343.616 21.7178 343.347 20.9555 342.81 20.4119C342.28 19.8684 341.475 19.5966 340.394 19.5966C339.274 19.5966 338.396 19.8419 337.759 20.3324C337.123 20.8229 336.675 21.3466 336.417 21.9034L334.19 21.108C334.587 20.1799 335.118 19.4574 335.781 18.9403C336.45 18.4167 337.179 18.0521 337.968 17.8466C338.763 17.6345 339.546 17.5284 340.315 17.5284C340.805 17.5284 341.369 17.5881 342.005 17.7074C342.648 17.8201 343.268 18.0554 343.864 18.4134C344.468 18.7713 344.968 19.3116 345.366 20.0341C345.763 20.7566 345.962 21.7244 345.962 22.9375V33H343.616V30.9318H343.496C343.337 31.2633 343.072 31.6179 342.701 31.9957C342.33 32.3736 341.836 32.6951 341.219 32.9602C340.603 33.2254 339.851 33.358 338.962 33.358ZM339.32 31.25C340.248 31.25 341.031 31.0677 341.667 30.7031C342.31 30.3385 342.794 29.8679 343.119 29.2912C343.45 28.7145 343.616 28.108 343.616 27.4716V25.3239C343.516 25.4432 343.298 25.5526 342.96 25.652C342.628 25.7448 342.244 25.8277 341.806 25.9006C341.375 25.9669 340.954 26.0265 340.543 26.0795C340.139 26.1259 339.811 26.1657 339.559 26.1989C338.949 26.2784 338.379 26.4077 337.849 26.5866C337.325 26.759 336.901 27.0208 336.576 27.3722C336.258 27.7169 336.099 28.1875 336.099 28.7841C336.099 29.5994 336.4 30.2159 337.004 30.6335C337.613 31.0445 338.386 31.25 339.32 31.25ZM356.887 17.7273V19.7159H348.973V17.7273H356.887ZM351.279 14.0682H353.626V28.625C353.626 29.2879 353.722 29.785 353.914 30.1165C354.113 30.4413 354.365 30.66 354.67 30.7727C354.982 30.8788 355.31 30.9318 355.654 30.9318C355.913 30.9318 356.125 30.9186 356.291 30.892C356.457 30.8589 356.589 30.8324 356.689 30.8125L357.166 32.9205C357.007 32.9801 356.785 33.0398 356.5 33.0994C356.215 33.1657 355.853 33.1989 355.416 33.1989C354.753 33.1989 354.103 33.0563 353.467 32.7713C352.837 32.4863 352.314 32.0521 351.896 31.4688C351.485 30.8854 351.279 30.1496 351.279 29.2614V14.0682ZM360.417 33V17.7273H362.764V33H360.417ZM361.61 15.1818C361.153 15.1818 360.759 15.026 360.427 14.7145C360.102 14.4029 359.94 14.0284 359.94 13.5909C359.94 13.1534 360.102 12.7789 360.427 12.4673C360.759 12.1558 361.153 12 361.61 12C362.068 12 362.459 12.1558 362.784 12.4673C363.115 12.7789 363.281 13.1534 363.281 13.5909C363.281 14.0284 363.115 14.4029 362.784 14.7145C362.459 15.026 362.068 15.1818 361.61 15.1818ZM373.266 33.3182C371.888 33.3182 370.678 32.9901 369.637 32.3338C368.603 31.6776 367.794 30.7595 367.211 29.5795C366.634 28.3996 366.346 27.0208 366.346 25.4432C366.346 23.8523 366.634 22.4635 367.211 21.277C367.794 20.0904 368.603 19.169 369.637 18.5128C370.678 17.8565 371.888 17.5284 373.266 17.5284C374.645 17.5284 375.852 17.8565 376.886 18.5128C377.926 19.169 378.735 20.0904 379.312 21.277C379.895 22.4635 380.187 23.8523 380.187 25.4432C380.187 27.0208 379.895 28.3996 379.312 29.5795C378.735 30.7595 377.926 31.6776 376.886 32.3338C375.852 32.9901 374.645 33.3182 373.266 33.3182ZM373.266 31.2102C374.314 31.2102 375.175 30.9418 375.852 30.4048C376.528 29.8679 377.028 29.1619 377.353 28.2869C377.678 27.4119 377.84 26.464 377.84 25.4432C377.84 24.4223 377.678 23.4711 377.353 22.5895C377.028 21.7079 376.528 20.9953 375.852 20.4517C375.175 19.9081 374.314 19.6364 373.266 19.6364C372.219 19.6364 371.357 19.9081 370.681 20.4517C370.005 20.9953 369.504 21.7079 369.18 22.5895C368.855 23.4711 368.692 24.4223 368.692 25.4432C368.692 26.464 368.855 27.4119 369.18 28.2869C369.504 29.1619 370.005 29.8679 370.681 30.4048C371.357 30.9418 372.219 31.2102 373.266 31.2102ZM386.115 23.8125V33H383.769V17.7273H386.036V20.1136H386.235C386.593 19.3381 387.136 18.715 387.865 18.2443C388.595 17.767 389.536 17.5284 390.689 17.5284C391.723 17.5284 392.628 17.7405 393.404 18.1648C394.179 18.5824 394.783 19.2188 395.213 20.0739C395.644 20.9223 395.86 21.9962 395.86 23.2955V33H393.513V23.4545C393.513 22.2547 393.202 21.3201 392.578 20.6506C391.955 19.9744 391.1 19.6364 390.013 19.6364C389.264 19.6364 388.595 19.7988 388.005 20.1236C387.421 20.4484 386.961 20.9223 386.623 21.5455C386.284 22.1686 386.115 22.9242 386.115 23.8125Z" fill="#AAAAAA"/>
<defs>
<linearGradient id="paint0_linear_1006_2206" x1="29.5749" y1="-6.96502" x2="4.40858" y2="12.7151" gradientUnits="userSpaceOnUse">
<stop stop-color="#FF0000"/>
<stop offset="1" stop-color="#FFC700"/>
</linearGradient>
<linearGradient id="paint1_linear_1006_2206" x1="19.6204" y1="-2.72674" x2="-4.01774" y2="22.4234" gradientUnits="userSpaceOnUse">
<stop stop-color="#FF0000"/>
<stop offset="1" stop-color="#FFC700"/>
</linearGradient>
<linearGradient id="paint2_linear_1006_2206" x1="17.2215" y1="12.5715" x2="-6.09528" y2="34.9168" gradientUnits="userSpaceOnUse">
<stop stop-color="#FF0000"/>
<stop offset="1" stop-color="#FFC700"/>
</linearGradient>
<linearGradient id="paint3_linear_1006_2206" x1="19.6842" y1="20.553" x2="-7.79703" y2="39.5268" gradientUnits="userSpaceOnUse">
<stop stop-color="#FF0000"/>
<stop offset="1" stop-color="#FFC700"/>
</linearGradient>
<linearGradient id="paint4_linear_1006_2206" x1="34.9644" y1="23.4859" x2="9.71817" y2="42.9535" gradientUnits="userSpaceOnUse">
<stop stop-color="#FF0000"/>
<stop offset="1" stop-color="#FFC700"/>
</linearGradient>
<linearGradient id="paint5_linear_1006_2206" x1="48.3414" y1="21.6065" x2="25.2647" y2="46.9881" gradientUnits="userSpaceOnUse">
<stop stop-color="#FF0000"/>
<stop offset="1" stop-color="#FFC700"/>
</linearGradient>
<linearGradient id="paint6_linear_1006_2206" x1="48.2424" y1="6.12057" x2="25.0829" y2="28.7789" gradientUnits="userSpaceOnUse">
<stop stop-color="#FF0000"/>
<stop offset="1" stop-color="#FFC700"/>
</linearGradient>
<linearGradient id="paint7_linear_1006_2206" x1="43.1446" y1="-8.44524" x2="15.6849" y2="9.88334" gradientUnits="userSpaceOnUse">
<stop stop-color="#FF0000"/>
<stop offset="1" stop-color="#FFC700"/>
</linearGradient>
</defs>
</svg>
